<svg width="18" height="22" viewBox="0 0 18 22" fill="none" xmlns="http://www.w3.org/2000/svg">
<g opacity="0.5">
<path d="M8.63526 10.6924C11.3808 10.6924 13.6065 8.46672 13.6065 5.7212C13.6065 2.97568 11.3808 0.75 8.63526 0.75C5.88974 0.75 3.66406 2.97568 3.66406 5.7212C3.66406 8.46672 5.88974 10.6924 8.63526 10.6924Z" stroke="white" stroke-width="1.5" stroke-linecap="round" stroke-linejoin="round"/>
<path fill-rule="evenodd" clip-rule="evenodd" d="M0.750016 17.6064C0.748698 17.2569 0.826856 16.9117 0.978596 16.5969C1.45477 15.6446 2.79757 15.1398 3.91181 14.9113C4.7154 14.7398 5.53009 14.6252 6.34981 14.5684C7.86747 14.4351 9.39389 14.4351 10.9115 14.5684C11.7312 14.6259 12.5458 14.7404 13.3495 14.9113C14.4638 15.1398 15.8066 15.597 16.2828 16.5969C16.5879 17.2387 16.5879 17.9837 16.2828 18.6254C15.8066 19.6254 14.4638 20.0825 13.3495 20.3015C12.5469 20.4801 11.7319 20.5979 10.9115 20.6539C9.67629 20.7586 8.43528 20.7777 7.1974 20.711C6.9117 20.711 6.63552 20.711 6.34981 20.6539C5.53251 20.5986 4.72065 20.4808 3.92134 20.3015C2.79757 20.0825 1.46429 19.6254 0.978596 18.6254C0.827631 18.3069 0.74955 17.9588 0.750016 17.6064Z" stroke="white" stroke-width="1.5" stroke-linecap="round" stroke-linejoin="round"/>
</g>
</svg>
